<svg width="146" height="29" viewBox="0 0 146 29" fill="none" xmlns="http://www.w3.org/2000/svg">
<path d="M36.158 9.96579C35.8239 9.96579 35.4897 9.86634 35.2558 9.6343C35.0218 9.43541 34.9216 9.13707 34.9216 8.83873C34.8882 8.50724 35.0218 8.2089 35.2558 7.97686C35.4897 7.74482 35.8239 7.64537 36.158 7.64537H42.3738C42.7079 7.64537 43.0421 7.74482 43.276 7.97686C43.51 8.2089 43.6436 8.50724 43.6102 8.83873C43.6102 9.13707 43.51 9.43541 43.276 9.6343C43.0421 9.86634 42.7079 9.96579 42.3738 9.96579H36.158ZM42.1064 21.7336C41.2376 21.7336 40.4021 21.5015 39.7003 21.0375C38.9651 20.5734 38.397 19.9435 37.996 19.1811C37.5616 18.3524 37.3611 17.4574 37.3611 16.5292V3.83327C37.3611 3.104 37.9626 2.50732 38.6978 2.50732C39.433 2.50732 40.0345 3.104 40.0345 3.83327V16.5624C40.0011 17.2254 40.235 17.8552 40.636 18.3524C40.9702 18.8165 41.5049 19.0817 42.073 19.0817H43.0087C43.3095 19.0817 43.6102 19.2143 43.8441 19.4463C44.0781 19.7115 44.1783 20.043 44.1783 20.4076C44.1783 20.7723 44.0112 21.1369 43.7439 21.3689C43.4097 21.6341 43.0087 21.7667 42.6077 21.7336H42.1064Z" fill="#010033" stroke="#010033" stroke-miterlimit="10"/>
<path d="M52.8337 21.833C51.497 21.8662 50.1603 21.5347 48.9906 20.8717C47.8879 20.2419 46.9856 19.3469 46.384 18.2529C45.1142 15.8331 45.1142 12.9823 46.384 10.5624C46.9856 9.46854 47.9213 8.57353 48.9906 7.9437C51.3967 6.68405 54.2707 6.68405 56.6767 7.9437C57.7795 8.57353 58.6818 9.46854 59.3167 10.5624C60.5866 12.9823 60.5866 15.8331 59.3167 18.2529C58.7152 19.3469 57.8129 20.2419 56.7102 20.8717C55.5071 21.5347 54.1704 21.8662 52.8337 21.833ZM52.8337 19.4463C53.7026 19.4463 54.5714 19.2474 55.3066 18.8165C56.0084 18.3855 56.6099 17.7889 56.9775 17.0596C57.3785 16.264 57.6124 15.369 57.579 14.474C57.6124 13.579 57.3785 12.684 56.9775 11.8552C56.6099 11.126 56.0084 10.4962 55.3066 10.0652C53.7694 9.20335 51.898 9.20335 50.3608 10.0652C49.659 10.4962 49.0575 11.0928 48.6565 11.8552C48.222 12.6508 48.0215 13.5458 48.0215 14.474C47.9881 15.369 48.222 16.264 48.6565 17.0596C49.0575 17.7889 49.6256 18.3855 50.3608 18.8165C51.096 19.2474 51.9648 19.4463 52.8337 19.4463Z" fill="#010033" stroke="#010033" stroke-miterlimit="10"/>
<path d="M64.2959 27.9987C63.5607 28.0318 62.9592 27.4352 62.9258 26.7059C62.9258 26.6727 62.9258 26.6727 62.9258 26.6396V14.4409C62.9258 13.1149 63.26 11.789 63.9283 10.6619C64.5633 9.568 65.4655 8.63983 66.5683 8.01001C70.1106 5.92164 74.6554 7.08184 76.7608 10.5956C76.7608 10.6288 76.7942 10.6288 76.7942 10.6619C77.4625 11.8221 77.7967 13.1149 77.7633 14.4409C77.7967 15.7668 77.4625 17.0596 76.861 18.2198C76.2929 19.3137 75.424 20.2087 74.3881 20.8717C72.4164 22.0651 70.0104 22.1645 67.9385 21.2032C67.0696 20.7723 66.301 20.1756 65.666 19.4132V26.6064C65.666 26.9711 65.5324 27.3357 65.2984 27.5677C65.0645 27.8661 64.6969 27.9987 64.2959 27.9987ZM70.3445 19.4463C71.2134 19.4463 72.0488 19.2143 72.784 18.7833C73.5192 18.3524 74.0873 17.7226 74.4884 16.9933C74.9228 16.1977 75.1233 15.3359 75.1233 14.4409C75.1233 13.5458 74.9228 12.6508 74.4884 11.8884C74.0873 11.1591 73.4858 10.5293 72.784 10.0984C70.545 8.77243 67.6711 9.46855 66.301 11.6564C66.2676 11.7227 66.2007 11.789 66.1673 11.8884C65.7329 12.684 65.5324 13.579 65.5324 14.474C65.5324 15.369 65.7329 16.2309 66.1673 17.0265C67.0028 18.5181 68.6068 19.4795 70.3445 19.4463Z" fill="#010033" stroke="#010033" stroke-miterlimit="10"/>
<path d="M87.1537 21.833C85.817 21.8662 84.5137 21.5015 83.3775 20.8717C82.2747 20.2419 81.339 19.3137 80.7041 18.2198C80.0357 17.0596 79.7015 15.7668 79.735 14.4409C79.7015 13.1149 80.0357 11.8221 80.6372 10.6619C81.2053 9.568 82.0742 8.67298 83.1102 8.01001C84.1795 7.34703 85.3826 7.01554 86.6524 7.04869C88.6575 7.01554 90.5958 7.91056 91.8322 9.46855V2.24213C91.8322 1.87749 91.9659 1.51286 92.2332 1.24767C92.7679 0.717289 93.6368 0.717289 94.1715 1.24767C94.4388 1.51286 94.6059 1.87749 94.5725 2.24213V14.4409C94.6059 15.7668 94.2383 17.0928 93.6034 18.2198C92.2332 20.5071 89.7603 21.8993 87.1537 21.833ZM87.1537 19.4463C88.8914 19.4795 90.4955 18.5181 91.2975 16.9933C91.732 16.1977 91.9325 15.3359 91.9325 14.4409C91.9325 13.5458 91.732 12.6508 91.2975 11.8884C90.8965 11.1591 90.3284 10.5293 89.5932 10.0984C88.0894 9.23651 86.218 9.23651 84.7142 10.0984C83.979 10.5293 83.4109 11.1591 82.9765 11.8884C82.5421 12.684 82.3415 13.5458 82.3415 14.4409C82.3415 15.3359 82.5421 16.2309 82.9765 16.9933C83.3775 17.7226 83.979 18.3524 84.7142 18.7833C85.4494 19.2143 86.2849 19.4463 87.1537 19.4463Z" fill="#010033" stroke="#010033" stroke-miterlimit="10"/>
<path d="M104.665 21.833C103.328 21.8662 101.991 21.5347 100.822 20.8717C99.7189 20.2419 98.8166 19.3469 98.1817 18.2529C96.9118 15.8331 96.9118 12.9823 98.1817 10.5624C98.7832 9.46854 99.7189 8.57353 100.822 7.9437C103.228 6.68405 106.102 6.68405 108.508 7.9437C109.611 8.57353 110.513 9.46854 111.114 10.5624C112.384 12.9823 112.384 15.8331 111.114 18.2529C110.513 19.3469 109.611 20.2419 108.508 20.8717C107.338 21.5347 106.035 21.8662 104.665 21.833ZM104.665 19.4463C105.534 19.4463 106.402 19.2474 107.138 18.8165C107.839 18.3855 108.441 17.7889 108.809 17.0596C109.21 16.264 109.443 15.369 109.41 14.474C109.443 13.579 109.21 12.684 108.809 11.8552C108.441 11.126 107.839 10.4962 107.138 10.0652C105.6 9.20335 103.729 9.20335 102.192 10.0652C101.49 10.4962 100.888 11.0928 100.487 11.8552C100.053 12.6508 99.8525 13.5458 99.886 14.474C99.8525 15.369 100.086 16.264 100.487 17.0596C100.888 17.7889 101.457 18.3855 102.192 18.8165C102.96 19.2474 103.796 19.4463 104.665 19.4463Z" fill="#010033" stroke="#010033" stroke-miterlimit="10"/>
<path d="M116.16 21.7667C115.425 21.7999 114.824 21.2032 114.79 20.4739C114.79 20.4408 114.79 20.4408 114.79 20.4076V8.50724C114.757 8.1426 114.924 7.77797 115.191 7.51278C115.458 7.24759 115.793 7.11499 116.16 7.14814C116.862 7.11499 117.497 7.64537 117.53 8.3415C117.53 8.40779 117.53 8.44094 117.53 8.50724V20.4076C117.53 20.7723 117.397 21.1369 117.163 21.3689C116.895 21.6341 116.528 21.7999 116.16 21.7667ZM127.222 21.7667C126.486 21.7999 125.885 21.2032 125.851 20.4739C125.851 20.4408 125.851 20.4408 125.851 20.4076V13.8442C125.885 12.9823 125.684 12.1204 125.283 11.358C124.916 10.7282 124.414 10.231 123.78 9.93264C123.078 9.60115 122.343 9.4354 121.574 9.46855C120.872 9.46855 120.17 9.60115 119.535 9.93264C118.967 10.1978 118.466 10.6288 118.065 11.1591C117.697 11.6564 117.53 12.2862 117.53 12.916H115.826C115.793 11.8553 116.093 10.8276 116.662 9.89949C117.196 9.00447 117.998 8.2752 118.901 7.81112C119.87 7.28074 120.972 7.01555 122.109 7.0487C123.278 7.01555 124.414 7.31389 125.45 7.84427C126.42 8.37465 127.255 9.17022 127.756 10.1647C128.358 11.3249 128.659 12.6177 128.592 13.9105V20.4739C128.625 21.2032 128.024 21.7999 127.288 21.833C127.255 21.7667 127.255 21.7667 127.222 21.7667Z" fill="#010033" stroke="#010033" stroke-miterlimit="10"/>
<path d="M138.651 21.833C137.28 21.8662 135.91 21.5347 134.674 20.8717C133.538 20.275 132.602 19.3469 131.967 18.253C131.299 17.0928 130.931 15.7668 130.964 14.4077C130.931 13.0486 131.265 11.7227 131.9 10.5625C132.502 9.46855 133.404 8.57354 134.473 7.94371C135.61 7.31389 136.913 6.9824 138.25 6.9824C139.519 6.94925 140.756 7.28074 141.859 7.91056C142.861 8.50724 143.663 9.40226 144.164 10.4299C144.733 11.5901 145 12.8497 145 14.1425C145 14.474 144.9 14.7723 144.666 14.9712C144.432 15.2033 144.098 15.3027 143.763 15.3027H132.903V13.1481H143.663L142.56 13.9105C142.56 13.0818 142.36 12.253 142.026 11.5238C141.357 10.0652 139.887 9.17021 138.283 9.23651C137.347 9.20336 136.445 9.4354 135.676 9.89949C134.941 10.3304 134.373 10.9602 134.005 11.7227C133.604 12.5514 133.437 13.4464 133.437 14.3414C133.404 15.2696 133.638 16.1646 134.106 16.9602C134.54 17.7226 135.175 18.3524 135.977 18.7833C136.813 19.2474 137.748 19.4795 138.684 19.4463C139.252 19.4463 139.854 19.3469 140.388 19.148C140.89 18.9822 141.357 18.7502 141.792 18.4519C142.059 18.253 142.36 18.1535 142.661 18.1535C142.961 18.1535 143.262 18.253 143.496 18.4519C143.763 18.6839 143.964 18.9822 143.997 19.3469C143.997 19.6784 143.83 19.9767 143.563 20.1756C142.895 20.706 142.093 21.1038 141.291 21.3358C140.422 21.6673 139.553 21.833 138.651 21.833Z" fill="#010033" stroke="#010033" stroke-miterlimit="10"/>
<path d="M23.8603 23.9877H4.3109C1.93823 23.9877 0 22.0651 0 19.7115C0 18.9159 0.233925 18.1204 0.668357 17.4242L10.4264 2.01009C11.6962 0.0211673 14.3697 -0.608658 16.3747 0.650993C16.9094 1.01563 17.3773 1.47971 17.7449 2.01009L27.5029 17.4242C28.1044 18.3856 28.3049 19.5458 28.071 20.6397C27.8036 21.7667 27.1353 22.6949 26.1662 23.3247C25.4644 23.7556 24.6624 23.9877 23.8603 23.9877ZM14.1023 1.64545C13.2335 1.64545 12.3646 2.07639 11.8633 2.87196L2.07191 18.2861C1.80456 18.717 1.67089 19.1811 1.67089 19.6784C1.67089 21.1369 2.87393 22.2971 4.3109 22.2971H23.8603C24.3616 22.2971 24.8629 22.1645 25.2639 21.8993C26.5003 21.1369 26.8679 19.5126 26.0993 18.2861L16.3079 2.87196C16.1074 2.54047 15.8066 2.24213 15.4725 2.04324C15.0714 1.77805 14.5702 1.64545 14.1023 1.64545Z" fill="#852DF8"/>
<path d="M7.25156 27.402C5.78117 27.402 4.34421 26.6727 3.54218 25.3136C3.14116 24.6175 2.90724 23.8219 2.94066 23.0264L3.34167 4.79458C3.37509 2.44102 5.34674 0.551545 7.71941 0.617843C8.38776 0.650991 9.0227 0.816735 9.5908 1.11507L25.9655 9.3691C28.1043 10.4299 28.9397 13.0155 27.8704 15.137C27.5028 15.8663 26.9347 16.4629 26.2329 16.8607L9.45713 26.8053C8.75536 27.2363 7.98675 27.402 7.25156 27.402ZM7.61915 2.27528C6.21561 2.27528 5.01256 3.40233 4.97914 4.86088L4.57813 23.0927C4.57813 23.5899 4.7118 24.0871 4.94573 24.4849C5.31332 25.0816 5.88143 25.5125 6.5832 25.6783C7.28497 25.844 7.98675 25.7446 8.58827 25.3799L25.364 15.4353C25.7985 15.1701 26.1326 14.8055 26.3666 14.3746C27.0349 13.0818 26.5002 11.4906 25.1969 10.8276L8.82219 2.57362C8.4546 2.37472 8.087 2.27528 7.68599 2.27528C7.65257 2.27528 7.65257 2.27528 7.61915 2.27528Z" fill="#00F6EA"/>
</svg>
